<mxfile host="app.diagrams.net" modified="2023-05-26T06:18:43.237Z" agent="Mozilla/5.0 (Windows NT 10.0; Win64; x64) AppleWebKit/537.36 (KHTML, like Gecko) Chrome/113.0.0.0 Safari/537.36" version="21.3.4" etag="FgQ3RFyHsAmBYuc-lTpa" type="github">
  <diagram name="第 1 页" id="Y_EOp4e_j7C51yfpttSH">
    <mxGraphModel>
      <root>
        <mxCell id="0" />
        <mxCell id="1" parent="0" />
      </root>
    </mxGraphModel>
  </diagram>
</mxfile>
